<svg width="186" height="16" viewBox="0 0 186 16" fill="none" xmlns="http://www.w3.org/2000/svg">
<path d="M13.2868 0.885254V15.1148H11.1241V7.6223H2.84374V15.1148H0.619141V0.885254H2.78194V5.67041H11.1241V0.885254H13.2868Z" fill="#828282"/>
<path d="M18.5395 15.1148C17.489 15.1148 16.6856 14.8629 16.1295 14.2333C15.5116 13.6666 15.2026 12.9111 15.2026 11.9666V11.2111C15.2026 10.2666 15.5116 9.51113 16.1295 8.9444C16.6856 8.37777 17.5508 8.06293 18.5395 8.06293H24.2245V7.99998C24.2245 6.86661 23.6065 6.29998 22.3707 6.29998H16.0677V4.41113H22.3707C23.6683 4.41113 24.657 4.78892 25.3985 5.4185C26.0783 6.11113 26.449 7.05556 26.449 8.25187V12.0296C26.449 12.9741 26.1401 13.7296 25.4603 14.2963C24.9042 14.8 24.0391 15.0519 22.9886 15.0519H18.5395V15.1148ZM22.556 9.95187H19.0956C17.9833 9.95187 17.4272 10.4556 17.4272 11.4V11.7778C17.4272 12.7222 17.9833 13.2259 19.0956 13.2259H22.556C23.6683 13.2259 24.2863 12.7851 24.2863 11.7778V11.4C24.2863 10.4556 23.6683 9.95187 22.556 9.95187Z" fill="#828282"/>
<path d="M32.8754 4.41113H35.0382C36.3976 4.41113 37.4481 4.78892 38.2514 5.60735C38.993 6.42588 39.4255 7.55924 39.4255 8.9444V15.0519H37.2627V9.00735C37.2627 8.12588 37.0774 7.43334 36.7684 7.05556C36.3358 6.55187 35.7179 6.23703 34.9146 6.23703H33.0608C32.2575 6.23703 31.7013 6.48882 31.207 7.05556C30.898 7.43334 30.7126 8.12588 30.7126 9.00735V15.0519H28.5498V8.9444C28.5498 7.49629 28.9206 6.42588 29.7239 5.60735C30.4036 4.78892 31.5159 4.41113 32.8754 4.41113Z" fill="#828282"/>
<path d="M49.4978 13.6666C48.6945 14.6111 47.7676 15.1148 46.5935 15.1148H45.2341C43.9982 15.1148 43.0713 14.737 42.3298 13.9185C41.65 13.1629 41.2793 12.1556 41.2793 10.8333V4.41113H43.4421V10.8333C43.4421 11.5888 43.6274 12.2185 43.9364 12.5333C44.3072 12.9111 44.8015 13.1629 45.4195 13.1629H46.3464C46.9643 13.1629 47.4586 12.9741 47.8294 12.5333C48.1384 12.1556 48.3238 11.5888 48.3238 10.8333V4.41113H50.4865V10.8333C50.4865 11.5888 50.6719 12.2185 50.9809 12.5333C51.3516 12.9111 51.846 13.1629 52.4639 13.1629H53.3909C54.0089 13.1629 54.5029 12.9741 54.8739 12.5333C55.1829 12.1556 55.3679 11.5888 55.3679 10.8333V4.41113H57.5309V10.8333C57.5309 12.1556 57.1599 13.2259 56.4809 13.9185C55.7389 14.6741 54.8119 15.1148 53.5759 15.1148H52.2169C51.2281 15.1148 50.2394 14.6111 49.4978 13.6666Z" fill="#828282"/>
<path d="M64.0808 6.30005C63.2778 6.30005 62.7218 6.55195 62.2268 7.11858C61.9178 7.49637 61.7328 8.1889 61.7328 9.07037V15.1149H59.5698V0.822266H61.7328V5.04079C62.3508 4.60005 63.0918 4.41121 63.8958 4.41121H66.0588C67.4178 4.41121 68.4678 4.7889 69.2718 5.60743C70.0128 6.42595 70.4458 7.55932 70.4458 8.94448V15.0518H68.2828V9.00743C68.2828 8.12595 68.0978 7.43342 67.7888 7.05563C67.3558 6.55195 66.7378 6.23711 65.9348 6.23711H64.0808V6.30005Z" fill="#828282"/>
<path d="M75.6368 15.1148C74.5858 15.1148 73.7828 14.8629 73.2268 14.2333C72.6088 13.6666 72.2998 12.9111 72.2998 11.9666V11.2111C72.2998 10.2666 72.6088 9.51113 73.2268 8.9444C73.7828 8.37777 74.6478 8.06293 75.6368 8.06293H81.3218V7.99998C81.3218 6.86661 80.7038 6.29998 79.4678 6.29998H73.1028V4.41113H79.4058C80.7038 4.41113 81.6918 4.78892 82.4338 5.4185C83.1138 6.11113 83.4838 7.05556 83.4838 8.25187V12.0296C83.4838 12.9741 83.1748 13.7296 82.4958 14.2963C81.9398 14.8 81.0738 15.0519 80.0238 15.0519H75.6368V15.1148ZM79.5908 9.95187H76.1308C75.0188 9.95187 74.4628 10.4556 74.4628 11.4V11.7778C74.4628 12.7222 75.0188 13.2259 76.1308 13.2259H79.5908C80.7038 13.2259 81.3218 12.7851 81.3218 11.7778V11.4C81.3218 10.4556 80.7648 9.95187 79.5908 9.95187Z" fill="#828282"/>
<path d="M101.157 0.885254V2.83714H93.619C92.259 2.83714 91.518 3.40378 91.518 4.41115V5.35567C91.518 6.42599 92.197 6.92968 93.557 6.92968H97.635C98.995 6.92968 99.983 7.24452 100.725 7.8742C101.466 8.50378 101.837 9.38525 101.837 10.3926V11.7148C101.837 12.7223 101.466 13.6038 100.725 14.2334C100.045 14.863 98.995 15.1779 97.635 15.1779H89.849V13.226H97.512C98.933 13.226 99.613 12.7223 99.613 11.6519V10.5186C99.613 9.4482 98.933 8.94452 97.512 8.94452H93.433C92.074 8.94452 91.023 8.62968 90.343 8.00009C89.602 7.37041 89.293 6.55189 89.293 5.48157V4.3482C89.293 3.34083 89.664 2.45936 90.343 1.82968C91.023 1.20009 92.074 0.885254 93.433 0.885254H101.157Z" fill="#828282"/>
<path d="M111.168 15.1148H107.955C106.657 15.1148 105.606 14.737 104.865 13.9815C104.123 13.2259 103.753 12.1556 103.753 10.7704V8.75556C103.753 7.3704 104.123 6.29998 104.865 5.5444C105.606 4.78892 106.595 4.41113 107.955 4.41113H111.168C112.466 4.41113 113.516 4.85187 114.258 5.5444C114.999 6.29998 115.37 7.3704 115.37 8.75556V10.7704C115.37 12.1556 114.999 13.2259 114.258 13.9815C113.516 14.737 112.466 15.1148 111.168 15.1148ZM110.983 13.2259C111.724 13.2259 112.342 12.9741 112.713 12.4704C113.022 12.0296 113.145 11.4629 113.145 10.6444V8.88145C113.145 8.06293 112.96 7.43334 112.713 7.05556C112.342 6.55187 111.786 6.29998 110.983 6.29998H108.078C107.337 6.29998 106.719 6.55187 106.348 7.05556C106.039 7.49629 105.915 8.06293 105.915 8.88145V10.6444C105.915 11.4629 106.039 12.0296 106.348 12.4704C106.719 12.9741 107.275 13.2259 108.078 13.2259H110.983Z" fill="#828282"/>
<path d="M117.471 15.1149V0.822266H119.696V15.1149H117.471Z" fill="#828282"/>
<path d="M126.184 15.1148C124.824 15.1148 123.774 14.737 122.971 13.9185C122.167 13.1629 121.797 12.0296 121.797 10.5815V4.41113H124.021V10.4556C124.021 11.337 124.145 12.0296 124.515 12.4074C124.948 12.9111 125.566 13.1629 126.369 13.1629H128.223C129.026 13.1629 129.644 12.9111 130.077 12.4074C130.386 11.9666 130.571 11.337 130.571 10.4556V4.41113H132.796V10.5815C132.796 12.0296 132.363 13.1629 131.622 13.9185C130.818 14.737 129.768 15.1148 128.408 15.1148H126.184Z" fill="#828282"/>
<path d="M139.655 4.41118H142.93V6.30003H139.655V15.1778H137.43V6.30003H134.155V4.41118H137.43V2.01855H139.655V4.41118Z" fill="#828282"/>
<path d="M147.07 2.27041C147.07 2.71115 146.947 3.02599 146.638 3.27788C146.329 3.52968 146.02 3.65567 145.587 3.65567C145.154 3.65567 144.846 3.52968 144.598 3.27788C144.289 3.02599 144.166 2.71115 144.166 2.27041C144.166 1.82968 144.289 1.51493 144.598 1.26304C144.846 1.01115 145.154 0.885254 145.587 0.885254C146.02 0.885254 146.329 1.01115 146.638 1.26304C146.947 1.51493 147.07 1.82968 147.07 2.27041ZM144.537 4.41115H146.761V15.1779H144.537V4.41115Z" fill="#828282"/>
<path d="M156.277 15.1148H153.064C151.766 15.1148 150.716 14.737 149.974 13.9815C149.233 13.2259 148.862 12.1556 148.862 10.7704V8.75556C148.862 7.3704 149.233 6.29998 149.974 5.5444C150.716 4.78892 151.705 4.41113 153.064 4.41113H156.277C157.575 4.41113 158.625 4.85187 159.367 5.5444C160.108 6.29998 160.479 7.3704 160.479 8.75556V10.7704C160.479 12.1556 160.108 13.2259 159.367 13.9815C158.625 14.737 157.637 15.1148 156.277 15.1148ZM156.154 13.2259C156.895 13.2259 157.513 12.9741 157.884 12.4704C158.193 12.0296 158.316 11.4629 158.316 10.6444V8.88145C158.316 8.06293 158.131 7.43334 157.884 7.05556C157.513 6.55187 156.957 6.29998 156.154 6.29998H153.249C152.508 6.29998 151.89 6.55187 151.519 7.05556C151.21 7.49629 151.087 8.06293 151.087 8.88145V10.6444C151.087 11.4629 151.21 12.0296 151.519 12.4704C151.89 12.9741 152.446 13.2259 153.249 13.2259H156.154Z" fill="#828282"/>
<path d="M166.782 4.41113H168.945C170.305 4.41113 171.355 4.85187 172.158 5.60735C172.9 6.42588 173.332 7.55924 173.332 9.00735V15.1778H171.17V9.13334C171.17 8.25187 170.984 7.55924 170.675 7.18145C170.243 6.67777 169.625 6.36293 168.821 6.36293H166.968C166.164 6.36293 165.608 6.61482 165.114 7.18145C164.805 7.62219 164.619 8.25187 164.619 9.13334V15.1778H162.395V9.00735C162.395 7.55924 162.766 6.42588 163.569 5.60735C164.372 4.85187 165.423 4.41113 166.782 4.41113Z" fill="#828282"/>
<path d="M182.354 8.8185C183.528 8.8185 184.393 9.00735 184.95 9.38514C185.629 9.88882 186 10.5815 186 11.5888V12.4074C186 13.4148 185.629 14.1704 184.95 14.6111C184.393 14.9888 183.528 15.1778 182.354 15.1778H175.372V13.2259H182.354C183.281 13.2259 183.776 12.9111 183.776 12.2185V11.7778C183.776 11.0851 183.281 10.7704 182.354 10.7704H178.708C177.534 10.7704 176.669 10.5815 176.113 10.2037C175.433 9.76293 175.063 9.00735 175.063 7.99998V7.18145C175.063 6.17408 175.372 5.4185 176.113 4.97777C176.669 4.59998 177.534 4.41113 178.708 4.41113H185.382V6.36293H178.708C177.782 6.36293 177.287 6.74072 177.287 7.3704V7.81113C177.287 8.50366 177.72 8.8185 178.708 8.8185H182.354Z" fill="#828282"/>
</svg>
