<svg width="52" height="52" viewBox="0 0 52 52" fill="none" xmlns="http://www.w3.org/2000/svg">
<path d="M19.1628 26.6321C18.4456 19.8664 24.9009 14.4538 33.508 14.5666C42.1151 14.6793 49.5951 20.2047 50.3124 26.8576C51.0296 33.6234 44.5743 39.036 35.9672 38.9232C27.3601 38.9232 19.8801 33.3978 19.1628 26.6321ZM51.9518 28.6618C51.1321 20.3174 42.525 13.4389 32.5858 13.3262C22.6467 13.2134 15.2691 19.9791 16.0889 28.3235C16.9086 36.6679 25.5157 43.5464 35.4549 43.6592C45.2916 43.772 52.6691 37.0062 51.9518 28.6618Z" fill="#FBB584"/>
<path d="M36.9919 43.8847C32.0735 49.5228 24.2861 49.9739 19.5727 44.8996C14.7568 39.8253 14.8593 31.2554 19.7776 25.6173C24.696 19.9791 32.4834 19.5281 37.2993 24.6024C41.9102 29.6767 41.9102 38.2466 36.9919 43.8847ZM18.9579 25.5045C13.3223 32.0447 13.2198 42.0805 18.753 47.9442C24.2861 53.8078 33.4056 53.244 39.0412 46.7038C44.6768 40.1636 44.7792 30.1277 39.2461 24.3769C33.713 18.4005 24.5935 18.9643 18.9579 25.5045Z" fill="#F89B6C"/>
<path d="M19.4702 4.53069C29.6143 0.358491 39.656 4.53069 41.8077 14.0027C44.062 23.362 37.6066 34.4127 27.4626 38.5849C17.4209 42.6443 7.37929 38.4721 5.12505 29.1129C2.87081 19.6408 9.32614 8.70289 19.4702 4.53069ZM10.0434 8.02632C-0.510558 17.2728 -3.17466 30.466 4.10039 37.6828C11.273 44.8996 25.7206 43.3209 36.1721 34.1871C46.6236 25.0534 49.3902 11.7475 42.1151 4.53069C34.9425 -2.68609 20.5974 -1.10742 10.0434 8.02632Z" fill="#F37321"/>
</svg>
